#!OML:ASF H:\Terrain\Patient Classification 1\Walking\steve\steve.ASF
:FULLY-SPECIFIED
:DEGREES
47
root 7.67409 15.6525 -29.0019 5.24426 0.0838994 -3.66782
lowerback 1.68577 2.28522 3.80146
upperback -1.65985 3.20913 2.03712
thorax -2.56119 1.5501 -0.154384
lowerneck -9.22128 -1.51219 -3.36713
upperneck 15.025 -2.18086 4.06513
head 6.15049 -0.930103 1.67086
rclavicle 4.07757e-014 9.54166e-015
rhumerus -33.7565 -18.2763 -78.9063
rradius 23.151
rwrist 17.3295
rhand -21.4311 -33.042
rfingers 7.12502
rthumb 4.95812 -62.964
lclavicle 4.07757e-014 9.54166e-015
lhumerus -37.7402 -2.00324 90.7651
lradius 28.0883
lwrist 7.2235
lhand -27.3591 -18.0329
lfingers 7.12502
lthumb -0.766906 11.9455
rfemur -19.5689 2.96347 30.1448
rtibia 34.98
rfoot -17.23 11.5407
rtoes 6.20231
lfemur -31.9685 6.62794 -17.3946
ltibia 71.0784
lfoot -4.25562 2.82989
ltoes -12.5015
48
root 7.6849 15.6531 -28.7606 5.19013 -0.0577703 -3.87881
lowerback 1.67434 2.38207 4.09104
upperback -1.65054 3.34314 1.9505
thorax -2.52027 1.61126 -0.407286
lowerneck -9.0177 -1.50225 -3.34539
upperneck 14.9712 -2.19461 4.19225
head 6.09974 -0.928245 1.70736
rclavicle -1.64122e-014 2.98177e-014
rhumerus -32.5005 -15.3842 -80.8699
rradius 24.8003
rwrist 14.2191
rhand -22.8711 -36.5607
rfingers 7.12502
rthumb 3.56755 -66.5106
lclavicle -1.64122e-014 2.98177e-014
lhumerus -38.6187 -1.54633 90.312
lradius 26.8859
lwrist 6.49213
lhand -27.5059 -20.1088
lfingers 7.12502
lthumb -0.908703 9.86903
rfemur -18.3699 2.79171 30.3625
rtibia 34.7319
rfoot -17.5236 12.4296
rtoes 10.0271
lfemur -33.2756 6.68921 -17.2928
ltibia 69.669
lfoot -5.21159 2.94369
ltoes -15.6844
49
root 7.69605 15.6362 -28.525 5.16459 -0.546584 -3.87147
lowerback 1.67625 2.59791 4.15506
upperback -1.56864 3.62492 1.774
thorax -2.41145 1.75164 -0.630211
lowerneck -9.12778 -1.57804 -3.22388
upperneck 15.0034 -2.32032 4.2259
head 6.1331 -0.978279 1.68739
rclavicle -3.29734e-014 -3.57812e-015
rhumerus -31.1634 -12.3742 -82.7656
rradius 26.5082
rwrist 10.4615
rhand -24.5944 -40.0964
rfingers 7.12502
rthumb 1.90332 -70.0676
lclavicle -3.29734e-014 -3.57812e-015
lhumerus -39.277 -1.13544 89.7825
lradius 25.6107
lwrist 5.77202
lhand -27.7014 -21.6759
lfingers 7.12502
lthumb -1.09748 8.30103
rfemur -17.2486 2.34253 30.3724
rtibia 34.4402
rfoot -17.9492 13.3426
rtoes 8.46265
lfemur -34.3349 6.80967 -17.5067
ltibia 67.8764
lfoot -6.43582 3.4878
ltoes -19.2365
50
root 7.71031 15.6024 -28.2904 5.15258 -1.08322 -3.99686
lowerback 1.77014 2.76242 4.28179
upperback -1.56072 3.85142 1.71017
thorax -2.43471 1.86122 -0.777274
lowerneck -9.0703 -1.56938 -3.10859
upperneck 14.9174 -2.31904 4.18817
head 6.09425 -0.975313 1.65639
rclavicle -3.78685e-014 -2.46493e-014
rhumerus -30.0216 -10.4341 -83.6589
rradius 28.0864
rwrist 9.57824
rhand -23.6375 -41.6946
rfingers 7.12502
rthumb 2.8274 -71.6556
lclavicle -3.78685e-014 -2.46493e-014
lhumerus -40.1641 -0.480802 89.2025
lradius 24.4609
lwrist 4.96235
lhand -26.9372 -19.7788
lfingers 7.12502
lthumb -0.359431 10.2006
rfemur -16.1075 1.75612 30.4878
rtibia 33.9778
rfoot -18.5817 14.6142
rtoes 5.36412
lfemur -35.2251 6.99698 -17.6382
ltibia 65.8341
lfoot -7.31418 4.00643
ltoes -21.6452
51
root 7.72269 15.5983 -28.0468 5.20032 -1.3178 -4.30161
lowerback 1.70995 2.80724 4.58231
upperback -1.59534 3.91762 1.72266
thorax -2.41549 1.88883 -0.930183
lowerneck -8.90253 -1.5164 -3.2041
upperneck 14.8695 -2.25335 4.30559
head 6.0497 -0.942159 1.71543
rclavicle 4.44532e-014 -1.35174e-014
rhumerus -29.0357 -8.94149 -84.2146
rradius 29.5777
rwrist 9.32568
rhand -22.4414 -40.8113
rfingers 7.12502
rthumb 3.98257 -70.7538
lclavicle 4.44532e-014 -1.35174e-014
lhumerus -41.0935 0.730434 88.3094
lradius 23.276
lwrist 3.62122
lhand -25.9418 -17.9219
lfingers 7.12502
lthumb 0.601957 12.057
rfemur -14.9018 1.14276 30.7396
rtibia 33.3823
rfoot -18.9725 15.9716
rtoes 6.73573
lfemur -36.2913 7.03202 -17.4365
ltibia 63.6453
lfoot -8.22079 4.25798
ltoes -23.4714
52
root 7.73193 15.6128 -27.8007 5.37277 -1.62976 -4.61523
lowerback 1.49774 2.95906 4.98121
upperback -1.64391 4.11639 1.61969
thorax -2.30253 1.98175 -1.25032
lowerneck -8.72531 -1.52382 -3.31178
upperneck 14.7646 -2.29668 4.61362
head 5.99212 -0.948729 1.82807
rclavicle 2.62768e-014 2.98177e-015
rhumerus -28.0957 -7.24605 -85.0842
rradius 31.2826
rwrist 7.10105
rhand -22.5066 -39.5089
rfingers 7.12502
rthumb 3.91953 -69.4526
lclavicle 2.62768e-014 2.98177e-015
lhumerus -41.9578 1.58305 87.332
lradius 22.0374
lwrist 2.31854
lhand -26.0575 -17.0829
lfingers 7.12502
lthumb 0.490229 12.8963
rfemur -13.7365 0.67759 30.9601
rtibia 32.6356
rfoot -18.4961 16.8606
rtoes 10.3653
lfemur -37.4168 6.96897 -17.0716
ltibia 61.1595
lfoot -9.55461 4.11827
ltoes -21.6925
53
root 7.74389 15.6155 -27.5541 5.49017 -2.12642 -4.81546
lowerback 1.44684 3.16221 5.25993
upperback -1.74012 4.39248 1.5048
thorax -2.32898 2.1113 -1.52811
lowerneck -8.20406 -1.52753 -3.22973
upperneck 14.3556 -2.3139 4.6272
head 5.77366 -0.961037 1.81821
rclavicle -1.02871e-014 3.97569e-015
rhumerus -27.4078 -5.27387 -85.8737
rradius 33.2536
rwrist 4.46327
rhand -22.2448 -38.9762
rfingers 7.12502
rthumb 4.17239 -68.9151
lclavicle -1.02871e-014 3.97569e-015
lhumerus -43.0413 1.96373 86.5876
lradius 20.8654
lwrist 1.47155
lhand -26.3613 -15.9113
lfingers 7.12502
lthumb 0.196831 14.0684
rfemur -12.4644 0.261366 31.0217
rtibia 31.8016
rfoot -17.9899 17.591
rtoes 11.6027
lfemur -38.0738 7.00549 -16.8775
ltibia 58.2513
lfoot -10.5784 3.88245
ltoes -17.459
54
root 7.75886 15.6179 -27.3019 5.468 -2.49303 -4.85163
lowerback 1.36629 3.24981 5.30122
upperback -1.67715 4.50077 1.47291
thorax -2.20615 2.16834 -1.57824
lowerneck -8.06687 -1.51856 -3.15684
upperneck 14.2024 -2.27501 4.396
head 5.69736 -0.957684 1.73616
rclavicle -3.02712e-014 -2.98177e-015
rhumerus -26.5179 -3.28315 -86.3494
rradius 34.9762
rwrist 2.77927
rhand -21.826 -39.568
rfingers 7.12502
rthumb 4.57683 -69.4985
lclavicle -3.02712e-014 -2.98177e-015
lhumerus -43.9334 2.88896 85.6571
lradius 19.6627
lwrist 0.107792
lhand -25.8627 -15.8024
lfingers 7.12502
lthumb 0.678312 14.1763
rfemur -11.0981 -0.373587 30.8695
rtibia 31.0834
rfoot -18.0361 18.435
rtoes 10.9557
lfemur -38.3376 7.01089 -16.8963
ltibia 54.9062
lfoot -11.2627 3.92097
ltoes -14.5753
55
root 7.77301 15.6215 -27.0509 5.53963 -2.72751 -4.83728
lowerback 1.19164 3.30245 5.3159
upperback -1.56941 4.55279 1.42552
thorax -1.98834 2.20088 -1.62019
lowerneck -8.49328 -1.53756 -3.1781
upperneck 14.3817 -2.2758 4.27729
head 5.82603 -0.961676 1.70056
rclavicle -2.59538e-014 -4.37326e-015
rhumerus -25.4005 -2.05457 -86.4577
rradius 36.3776
rwrist 2.3716
rhand -21.0857 -39.7921
rfingers 7.12502
rthumb 5.29157 -69.7061
lclavicle -2.59538e-014 -4.37326e-015
lhumerus -44.6382 4.07424 84.5219
lradius 18.6131
lwrist -1.64338
lhand -25.4723 -16.165
lfingers 7.12502
lthumb 1.05541 13.8121
rfemur -9.85504 -1.02051 30.6353
rtibia 30.4465
rfoot -18.066 19.2134
rtoes 11.0738
lfemur -38.6292 6.91937 -16.9376
ltibia 51.2605
lfoot -11.8908 4.32309
ltoes -15.4327
56
root 7.78714 15.6141 -26.8038 5.70517 -3.02854 -4.81626
lowerback 1.10721 3.43349 5.31074
upperback -1.61041 4.72166 1.34491
thorax -1.96586 2.2846 -1.69825
lowerneck -8.71768 -1.60748 -3.15188
upperneck 14.4547 -2.36001 4.19986
head 5.88991 -1.00383 1.66426
rclavicle -3.02898e-014 2.38542e-015
rhumerus -24.511 -1.25612 -86.3221
rradius 37.7151
rwrist 2.1383
rhand -19.6923 -38.7171
rfingers 7.12502
rthumb 6.63682 -68.5931
lclavicle -3.02898e-014 2.38542e-015
lhumerus -45.5273 5.26667 83.1971
lradius 17.5908
lwrist -3.77078
lhand -25.4782 -16.2325
lfingers 7.12502
lthumb 1.04971 13.7447
rfemur -8.63535 -1.54465 30.3843
rtibia 29.6751
rfoot -17.9316 19.9476
rtoes 11.3115
lfemur -38.9013 6.77037 -16.9445
ltibia 47.4638
lfoot -12.4541 4.61804
ltoes -15.1656
57
root 7.8024 15.6028 -26.5552 5.8565 -3.40382 -4.84725
lowerback 1.073 3.54585 5.3154
upperback -1.72406 4.87272 1.2676
thorax -2.04697 2.35549 -1.7842
lowerneck -8.62969 -1.63012 -3.07686
upperneck 14.3729 -2.39182 4.13691
head 5.84875 -1.02147 1.62972
rclavicle 3.91357e-015 -3.57812e-015
rhumerus -23.6802 -0.0125352 -86.3681
rradius 39.1457
rwrist 1.34005
rhand -18.7989 -38.4198
rfingers 7.12502
rthumb 7.4993 -68.2669
lclavicle 3.91357e-015 -3.57812e-015
lhumerus -46.616 7.20853 81.0293
lradius 16.2813
lwrist -6.96504
lhand -25.2982 -17.0876
lfingers 7.12502
lthumb 1.22356 12.8887
rfemur -7.33064 -2.15264 30.1605
rtibia 28.6859
rfoot -17.3442 20.9556
rtoes 12.0834
lfemur -39.1144 6.59477 -16.8326
ltibia 43.6367
lfoot -12.3551 4.78115
ltoes -13.1487
58
root 7.81687 15.6024 -26.305 5.98377 -3.83284 -4.97248
lowerback 1.11417 3.63851 5.42949
upperback -1.82654 5.00485 1.20489
thorax -2.15225 2.41446 -1.92001
lowerneck -8.4956 -1.54246 -3.1464
upperneck 14.1397 -2.27749 4.26226
head 5.75024 -0.963576 1.68956
rclavicle -1.46604e-014 -9.74045e-015
rhumerus -22.7609 1.27951 -86.5203
rradius 40.6327
rwrist 0.454158
rhand -19.0417 -38.9568
rfingers 7.12502
rthumb 7.26491 -68.8121
lclavicle -1.46604e-014 -9.74045e-015
lhumerus -47.8327 9.48359 78.3816
lradius 15.0462
lwrist -10.504
lhand -25.2294 -18.1757
lfingers 7.12502
lthumb 1.28999 11.8001
rfemur -5.90019 -2.66468 30.0119
rtibia 27.4898
rfoot -16.7373 21.7576
rtoes 11.7243
lfemur -39.2385 6.32973 -16.4935
ltibia 39.807
lfoot -11.9773 5.37239
ltoes -14.3469
59
root 7.83153 15.6081 -26.0555 6.18521 -4.35732 -5.23281
lowerback 1.06922 3.78069 5.63169
upperback -1.91268 5.20014 1.24044
thorax -2.18864 2.50608 -1.99763
lowerneck -8.56895 -1.47096 -3.27593
upperneck 14.0686 -2.16885 4.33684
head 5.73837 -0.911837 1.74213
rclavicle -3.3607e-015 8.05078e-015
rhumerus -21.7594 2.3214 -86.5144
rradius 41.7323
rwrist -0.695462
rhand -20.3118 -40.3357
rfingers 7.12502
rthumb 6.03884 -70.2297
lclavicle -3.3607e-015 8.05078e-015
lhumerus -49.0915 11.9664 75.582
lradius 13.8456
lwrist -14.1967
lhand -25.7526 -18.6769
lfingers 7.12502
lthumb 0.784724 11.3014
rfemur -4.47894 -3.17429 29.9629
rtibia 26.1145
rfoot -16.0063 22.5872
rtoes 10.4649
lfemur -39.2565 5.80279 -15.7826
ltibia 35.9885
lfoot -12.2121 6.3201
ltoes -17.9273
